<svg width="14" height="16" viewBox="0 0 14 16" fill="none" xmlns="http://www.w3.org/2000/svg">
<g clip-path="url(#clip0_2694_13426)">
<path d="M1.557 16.0001C1.14484 16.0003 0.749416 15.8371 0.457508 15.5461C0.1656 15.2551 0.00105945 14.8602 0 14.4481L0 3.58907C0.000794975 3.17683 0.16525 2.78178 0.457216 2.49075C0.749181 2.19972 1.14476 2.03654 1.557 2.03707H3.4V0.48407C3.4 0.355175 3.4512 0.231559 3.54235 0.140416C3.63349 0.0492738 3.7571 -0.00192969 3.886 -0.00192969C4.01489 -0.00192969 4.13851 0.0492738 4.22965 0.140416C4.3208 0.231559 4.372 0.355175 4.372 0.48407V2.03707H9.623V0.48407C9.623 0.35491 9.67431 0.23104 9.76564 0.139709C9.85697 0.0483791 9.98084 -0.00292969 10.11 -0.00292969C10.2392 -0.00292969 10.363 0.0483791 10.4544 0.139709C10.5457 0.23104 10.597 0.35491 10.597 0.48407V2.03707H12.444C12.6481 2.03668 12.8503 2.07652 13.039 2.15433C13.2277 2.23213 13.3992 2.34638 13.5437 2.49052C13.6882 2.63466 13.8029 2.80588 13.8812 2.99438C13.9595 3.18288 13.9999 3.38496 14 3.58907V14.4481C13.9997 14.6522 13.9592 14.8543 13.8808 15.0428C13.8024 15.2313 13.6877 15.4026 13.5431 15.5467C13.3985 15.6908 13.2269 15.805 13.0381 15.8828C12.8494 15.9606 12.6472 16.0005 12.443 16.0001H1.557ZM0.974 14.4481C0.974 14.6027 1.03542 14.751 1.14476 14.8603C1.25409 14.9696 1.40238 15.0311 1.557 15.0311H12.443C12.5979 15.0311 12.7465 14.9697 12.8563 14.8605C12.9661 14.7512 13.0282 14.603 13.029 14.4481V7.13207C12.9661 7.16038 12.898 7.17536 12.829 7.17607H1.173C1.10405 7.17597 1.0359 7.16131 0.973 7.13307L0.974 14.4481ZM12.827 6.20707C12.8959 6.20747 12.964 6.22211 13.027 6.25007V3.58907C13.0262 3.43417 12.9641 3.28589 12.8543 3.17664C12.7445 3.0674 12.5959 3.00607 12.441 3.00607H10.6V3.58907C10.6 3.71823 10.5487 3.8421 10.4574 3.93343C10.366 4.02476 10.2422 4.07607 10.113 4.07607C9.98384 4.07607 9.85997 4.02476 9.76864 3.93343C9.67731 3.8421 9.626 3.71823 9.626 3.58907V3.00607H4.376V3.58907C4.376 3.71797 4.3248 3.84158 4.23365 3.93272C4.14251 4.02387 4.0189 4.07507 3.89 4.07507C3.7611 4.07507 3.63749 4.02387 3.54635 3.93272C3.4552 3.84158 3.404 3.71797 3.404 3.58907V3.00607H1.557C1.40238 3.00607 1.25409 3.06749 1.14476 3.17683C1.03542 3.28616 0.974 3.43445 0.974 3.58907V6.24907C1.03706 6.22145 1.10515 6.20715 1.174 6.20707H12.827Z" fill="#142C60"/>
</g>
<defs>
<clipPath id="clip0_2694_13426">
<rect width="14" height="16" fill="white"/>
</clipPath>
</defs>
</svg>
