<svg width="48" height="48" viewBox="0 0 48 48" fill="none" xmlns="http://www.w3.org/2000/svg">
<g clip-path="url(#clip0_89_2598)">
<path d="M24 47C11.2975 47 1 36.7025 1 24C1 11.2975 11.2975 1 24 1C36.7025 1 47 11.2975 47 24C47 36.7025 36.7025 47 24 47Z" stroke="#142c60" stroke-opacity="1" stroke-width="2"/>
<path fill-rule="evenodd" clip-rule="evenodd" d="M23.2647 15.2941C23.6546 14.9029 24.2877 14.9018 24.6789 15.2917C25.0701 15.6816 25.0712 16.3147 24.6813 16.7059L18.4085 23H32C32.5523 23 33 23.4477 33 24C33 24.5523 32.5523 25 32 25H18.4085L24.6813 31.2941C25.0712 31.6853 25.0701 32.3184 24.6789 32.7083C24.2877 33.0982 23.6546 33.0971 23.2647 32.7059L15.2917 24.7059C15.0972 24.5108 15 24.2554 15 24C15 23.8689 15.0256 23.7378 15.0769 23.6148C15.1255 23.4982 15.1971 23.389 15.2917 23.2941L23.2647 15.2941Z" fill="#142c60" fill-opacity="1"/>
</g>
<defs>
<clipPath id="clip0_89_2598">
<rect width="48" height="48" fill="white" transform="matrix(-1 0 0 1 48 0)"/>
</clipPath>
</defs>
</svg>
