<svg width="48" height="48" viewBox="0 0 48 48" fill="none" xmlns="http://www.w3.org/2000/svg">
<g clip-path="url(#clip0_89_2599)">
<path d="M24 47C36.7025 47 47 36.7025 47 24C47 11.2975 36.7025 1 24 1C11.2975 1 1 11.2975 1 24C1 36.7025 11.2975 47 24 47Z" stroke="#142C60" stroke-width="2"/>
<path fill-rule="evenodd" clip-rule="evenodd" d="M24.7353 15.2941C24.3454 14.9029 23.7123 14.9018 23.3211 15.2917C22.9299 15.6816 22.9288 16.3147 23.3187 16.7059L29.5915 23H16C15.4477 23 15 23.4477 15 24C15 24.5523 15.4477 25 16 25H29.5915L23.3187 31.2941C22.9288 31.6853 22.9299 32.3184 23.3211 32.7083C23.7123 33.0982 24.3454 33.0971 24.7353 32.7059L32.7083 24.7059C32.9028 24.5108 33 24.2554 33 24C33 23.8689 32.9744 23.7378 32.9231 23.6148C32.8745 23.4982 32.8029 23.389 32.7083 23.2941L24.7353 15.2941Z" fill="#142C60"/>
</g>
<defs>
<clipPath id="clip0_89_2599">
<rect width="48" height="48" fill="white"/>
</clipPath>
</defs>
</svg>
