<svg width="16" height="16" viewBox="0 0 16 16" fill="none" xmlns="http://www.w3.org/2000/svg">
<g clip-path="url(#clip0_2694_11758)">
<path d="M8 16C6.41775 16 4.87103 15.5308 3.55544 14.6518C2.23985 13.7727 1.21447 12.5233 0.608967 11.0615C0.00346625 9.59966 -0.15496 7.99113 0.153721 6.43928C0.462403 4.88743 1.22433 3.46197 2.34315 2.34315C3.46197 1.22433 4.88743 0.462403 6.43928 0.153721C7.99113 -0.15496 9.59966 0.00346625 11.0615 0.608967C12.5233 1.21447 13.7727 2.23985 14.6518 3.55544C15.5308 4.87103 16 6.41775 16 8C16 10.1217 15.1571 12.1566 13.6569 13.6569C12.1566 15.1571 10.1217 16 8 16ZM8 1.143C6.64382 1.143 5.31809 1.54516 4.19046 2.29862C3.06283 3.05207 2.18395 4.12299 1.66496 5.37594C1.14597 6.6289 1.01018 8.00761 1.27476 9.33774C1.53934 10.6679 2.1924 11.8897 3.15137 12.8486C4.11034 13.8076 5.33214 14.4607 6.66227 14.7252C7.9924 14.9898 9.37111 14.854 10.6241 14.335C11.877 13.8161 12.9479 12.9372 13.7014 11.8095C14.4548 10.6819 14.857 9.35619 14.857 8C14.857 6.18141 14.1346 4.43731 12.8486 3.15137C11.5627 1.86544 9.81859 1.143 8 1.143Z" fill="#142C60"/>
<path d="M10.6342 11.5119L7.38916 8.26693V2.80493H8.55016V7.78493L11.4502 10.6929L10.6342 11.5119Z" fill="#142C60"/>
</g>
<defs>
<clipPath id="clip0_2694_11758">
<rect width="16" height="16" fill="white"/>
</clipPath>
</defs>
</svg>
